<?xml version="1.0" encoding="UTF-8"?>
<!DOCTYPE svg PUBLIC "-//W3C//DTD SVG 1.1//EN" "http://www.w3.org/Graphics/SVG/1.1/DTD/svg11.dtd">
<!-- Creator: CorelDRAW X7 -->
<svg xmlns="http://www.w3.org/2000/svg" xml:space="preserve" width="93.1332mm" height="23.1205mm" version="1.1" style="shape-rendering:geometricPrecision; text-rendering:geometricPrecision; image-rendering:optimizeQuality; fill-rule:evenodd; clip-rule:evenodd"
viewBox="0 0 3502 869"
 xmlns:xlink="http://www.w3.org/1999/xlink">
 <defs>
  <style type="text/css">
   <![CDATA[
    .fil0 {fill:#371B10}
   ]]>
  </style>
 </defs>
 <g id="Capa_x0020_1">
  <metadata id="CorelCorpID_0Corel-Layer"/>
  <path class="fil0" d="M136 581c0,-16 4,-39 10,-52 21,0 33,-3 35,16 -7,6 -16,8 -24,14 -8,7 -11,15 -21,22zm-13 3c6,20 0,10 -2,13 -14,-4 -6,1 -9,-7 -3,-3 -2,0 -4,-6 -6,-12 -1,-33 -2,-36 0,-1 -28,-32 6,-27 7,1 13,4 17,5 -9,24 -16,30 -6,58zm1113 -38l-72 -6c5,-11 0,-4 8,-11 7,-6 20,-12 26,-22 9,-12 12,-30 21,-44 21,24 17,48 17,83zm294 -23c-6,6 -11,9 -14,19 5,10 4,9 0,20l-1 5c7,-3 9,-4 9,-13 0,-3 -1,-10 -1,-10 1,-12 -2,-3 4,-8 2,-3 0,-2 3,-5 2,-3 4,-4 7,-6 4,-4 1,-3 4,1l-3 44 -2 9 -7 1c-11,6 -28,2 -41,1 -18,-2 -18,-3 -36,-3 -12,0 -25,-3 -37,-6l-38 -7c0,-1 -2,-1 -2,-1 -4,-3 -5,8 -3,-7l4 -2c20,1 22,-25 35,-39l18 1c1,-6 -1,-5 5,-5l43 -12 7 -5 0 7 3 -2c10,-8 22,-14 37,-16 12,11 29,22 6,39zm-1425 -42c10,3 11,6 18,14 8,11 11,10 10,24l-35 -6c-1,-15 2,-21 7,-32zm766 32l-4 4 9 1c-4,5 1,3 -6,6l-25 0 -1 -11 8 -1c0,0 -9,-8 1,-17l2 -18c23,-10 44,-5 39,26 -7,6 -10,9 -23,10zm-282 -17c4,13 8,7 9,18 1,11 -3,4 -6,17 10,1 10,2 3,6l-3 9 -31 4 20 -21 -1 -32c-10,-4 -12,-8 -15,-22 11,-17 38,-26 53,-7 14,19 -6,41 -29,28zm933 -88c14,25 24,54 22,84 -12,-7 -11,-10 -27,-13l5 -71zm-1438 80c9,7 3,1 11,3 -6,4 -16,9 -24,12 1,-11 0,-15 2,-23 -21,-31 20,-37 29,-2l-18 10zm1384 -483l10 14c5,8 4,6 6,16l-12 -1 -20 4 -10 0c2,6 1,3 3,8 0,1 1,3 1,3 0,-1 1,1 2,2l17 11c-4,13 4,3 -8,13 -1,4 1,3 -4,3l-12 9c1,1 2,2 3,3l7 5 22 5 -2 5c-1,16 0,6 -4,10l-4 4c3,8 -1,2 5,6l18 0 -1 12 7 2 8 -3 1 8c1,0 6,-2 6,-3l5 1c1,-1 2,1 3,2 -12,14 -18,10 -31,3 -12,-7 -21,-9 -28,-18 -16,-2 -41,-19 -60,-26l-34 -18 -15 -12c-17,-4 -28,-7 -31,-25 -15,2 -6,0 -10,5 -1,12 0,13 -14,14l-9 3c-1,0 -4,4 -5,5 -4,4 -3,2 -5,5l2 7 7 5 17 0 9 -3c34,6 7,-3 52,22 3,2 5,3 8,5l8 6 6 1c17,6 41,18 53,26 6,4 6,3 11,7 11,2 10,1 17,8l15 10c10,2 4,-3 13,6l0 47 -3 22 -5 29 -2 31 -2 16 -5 15c0,10 -1,13 -3,23 -1,3 -2,7 -4,10 -2,5 -1,4 -3,6 1,18 -16,71 -24,86 3,6 -2,2 7,2 4,-5 8,-8 13,-13 6,-7 9,-11 13,-19 3,-5 -5,-3 8,-4l1 -1 5 -9c3,-7 -2,-2 6,-10 5,9 0,10 0,27l1 5 -1 6 -2 17 -44 16c-6,3 -16,7 -23,10 -12,5 -12,8 -20,0 0,0 1,4 1,5l-20 0 0 1c-1,1 -2,1 -2,1l-3 3c-1,1 -2,2 -2,2 -1,1 -2,2 -2,2l0 29 -8 2c4,8 1,2 5,6 5,5 1,-5 4,5l-11 11c-3,5 4,5 -7,4 -6,0 -6,-2 -7,-6 -2,-4 2,-19 1,-27 -4,8 4,-5 -1,6 -3,7 -1,4 -5,9l-1 16 -7 0 -57 -7 13 -24c0,-1 1,-2 1,-2 0,-1 1,-1 1,-2 4,-7 0,-1 10,-8 19,-14 7,-20 4,-38l-9 -1 -5 2c11,5 14,9 14,25l-20 13c-3,10 -2,15 -8,22 -6,10 -8,11 -22,10l1 -21c1,-3 1,0 1,0l-8 -1c0,-5 -1,-8 0,-13 2,-7 -1,1 2,-6 5,-12 0,-1 5,-7 -2,-23 -15,-43 -21,-65 -6,-17 -4,-18 0,-36 8,14 7,28 25,34l5 -1c4,-11 5,-13 0,-24 -5,-11 -10,-10 -17,-22 -17,-26 -13,-30 -13,-62l0 -6c1,1 5,1 7,3 -7,-17 -6,-21 -3,-43 9,-7 6,-1 15,-11 11,-7 11,-15 22,-22 -4,-14 -5,-9 -6,-21 0,-14 -4,-17 -10,-25 -9,-10 -11,-9 -10,-21l-9 -10c0,-1 -2,-3 -2,-4l-6 -3 -7 0 -8 -1 -6 3c-12,4 -6,-3 -28,9l-22 18c0,18 -2,5 -3,20 0,8 1,15 2,22 0,14 3,16 13,24 12,8 14,10 21,18l-14 42 -18 80 1 30 8 6c9,-4 7,-9 15,-11 1,16 -7,45 -12,59 -6,13 -31,39 -43,47 -10,7 4,5 -14,5 -10,1 -21,-2 -33,-1 -15,0 -45,-4 -63,-5l-56 -2 20 -40 -2 0 -21 31c-4,11 2,5 -7,9 -16,0 -13,-1 -27,-3 -10,-2 -18,-2 -28,-1 -5,2 -6,2 -12,2 -1,0 -5,0 -6,0 -12,-2 -4,-1 -7,-3 6,-14 -2,-1 9,-10 3,-3 7,-6 9,-8l0 -17 -14 -18c-17,-3 -29,-3 -37,11 -7,13 -8,35 -12,45l-18 -1c-6,5 -25,4 -36,4l0 0c-15,-3 -48,2 -67,4 0,13 -8,3 -23,5 -1,1 -2,1 -3,1 -1,0 -6,2 -9,2 2,-14 2,-10 4,-10 -15,4 -4,9 -39,12 -15,1 -31,3 -47,3l6 -24 -2 -16c24,-5 27,-16 23,-33l-10 -12c-10,-6 -21,-10 -37,-4 -14,5 -20,12 -18,31 2,2 8,8 10,14 8,4 3,-1 3,10 0,13 -8,26 -19,35 -11,10 -40,9 -58,11 -40,3 -91,12 -126,11 -11,-19 -7,-32 -50,-51l8 -4 -5 -2c-17,-3 -27,-3 -46,-8l-11 -2 -15 0 -23 0 1 -6 -7 0 -2 2c19,7 -23,-2 -24,-2 -20,-1 -25,-1 -30,16 -4,13 8,17 -11,13 -14,-3 -7,-2 -8,-20 -1,-14 -7,-20 -14,-36 -13,-1 -27,-13 -33,-25 -14,-10 -19,-25 -21,-42 -3,-23 8,-36 7,-49 -10,-17 -16,-15 -36,-27 -14,-9 -40,-17 -40,8 10,18 30,19 53,21 -1,18 -14,19 -5,52 5,15 15,27 20,40l-9 4c-4,8 -8,13 -5,28 -2,11 -1,6 0,15 1,16 4,7 -4,13l-10 5 -28 4c2,-13 -1,-16 10,-17 7,-19 24,-10 11,-45 -31,-14 -31,5 -44,22l0 26c0,-1 1,-3 1,-3 2,4 2,-3 3,-4 7,-9 -4,2 4,-4 -2,-17 -3,-9 3,-20 16,-34 42,-13 26,13l-20 3 11 3c-4,5 6,2 -9,5l0 6c0,18 -4,27 -19,31l0 338 3502 0 0 -230c-4,0 -34,-5 -37,-6 -12,-6 -4,-20 0,-31l3 -10 -1 -12 -4 -1c1,14 -1,15 -11,20l9 8 -9 3 3 17c-7,-7 -14,-11 -14,-25 0,-16 8,-18 8,-33l7 -6c0,0 -4,-10 21,-5 7,2 2,1 7,4l2 14c8,3 11,4 12,16 -6,11 -5,9 -17,15l10 3 11 -11 0 -58c-10,-9 -62,-14 -70,-2l-13 15c-7,19 -20,5 -25,-3l10 -23 15 10 3 -4c-9,-13 -15,-5 -23,-18 -1,-9 -2,-10 4,-17 6,-8 8,-7 15,-7 5,-18 7,-11 3,-27 -1,-1 -2,-2 -2,-2 -1,1 -2,-1 -2,-1 -1,-1 -5,-3 -5,-3 -1,-1 -2,-4 -2,-3 0,0 -1,-2 -1,-3 -1,-4 -1,-6 -2,-11 -2,-14 -10,-33 -19,-41 -17,-16 -20,0 -38,3 -3,2 -1,2 -7,4 -10,2 -32,5 -40,1l-12 -1 0 6c3,7 7,10 9,20 4,1 11,0 18,-1l3 4 13 3c18,-2 29,-15 46,-12l7 22 6 10 -2 13 -8 10c-4,4 -5,4 -8,7 -1,1 -1,1 -2,2l-7 8 -10 6 0 -1c-1,1 -2,1 -2,2 0,1 -2,1 -2,2 -4,6 0,-2 -4,7 9,12 6,3 17,13 -1,17 -5,17 -22,19 -4,-15 -5,-8 -4,-23 1,-14 -2,-16 -10,-23l-9 -8 -2 -7 6 -2c5,-6 2,-6 13,-6l5 8 2 10 12 0 2 -10 -2 -15 0 -13 -13 0 -11 0 1 3c-6,4 7,5 -9,2l-1 -7 -1 2c-8,7 -15,9 -26,13 -3,5 2,3 -7,5 0,0 -12,1 -14,1 -11,3 -4,0 -11,7l0 5c3,7 1,4 2,10 0,1 1,1 1,2 1,1 2,1 2,2 0,1 2,7 2,9l2 0 -2 -21 31 4 7 18 2 7 -10 -1 -12 0 -5 13c0,0 -1,1 -1,2l-14 -6c-6,-4 -1,3 -7,-7l-21 -4 0 -18c1,-17 4,-5 -3,-18 2,-12 0,-10 10,-16l5 6 0 -17 2 -10 -11 -7 -46 -15c-9,-4 -7,5 -8,-4l-2 -5c-9,-3 -12,-6 -23,-10 -7,4 -6,4 -5,14l8 6 -14 4 1 9c19,8 24,15 48,18l1 -1 9 4c3,15 0,23 -7,33 -6,21 -10,14 -8,39 21,5 6,11 24,14 21,-3 9,3 28,3l17 3c0,10 1,3 -4,11 -1,0 -2,0 -3,2 0,1 -4,2 -5,3 0,0 -4,2 -5,2 -4,10 -10,16 -9,28 -6,7 0,4 -12,3 -2,0 -4,-2 -7,-3l-70 -3c-9,-9 -10,-20 -25,-20 -14,0 -22,10 -35,13 -4,-33 -3,-22 -15,-37l-15 -1 -8 4 -7 -5 -6 5c-4,5 0,1 -6,4 -20,11 -27,14 -38,33 -20,1 -128,7 -142,-1 -8,-5 -5,-8 -14,-12 -7,-4 -14,-2 -22,-3 -4,-16 -3,-19 -19,-23l-32 5c-6,3 -8,7 -12,11 -3,4 -8,7 -11,10 -6,-7 -7,-14 -7,-24 -4,-8 -2,-5 -6,-8l-12 -4c-9,3 -2,0 -11,6l-8 7c-2,6 0,2 -6,4 -2,10 0,3 -6,12 -2,3 -4,7 -8,10l-8 -5c-6,-8 -11,-11 -13,-20 -12,-7 -6,-11 -25,-14 -15,-2 -21,3 -32,8 0,0 1,3 -2,6 -5,6 2,1 -6,5 -5,-13 -1,-17 -5,-30 -8,-17 -2,-22 -2,-31 -1,-8 -5,-19 -11,-26 -1,-3 0,-2 -4,-7 -1,-1 -1,-1 -2,-2 -1,0 -1,-1 -2,-2l-4 -4 -6 1 -9 1 -6 3 -1 -2 -6 5c-6,5 0,3 -12,6l-25 16c-5,6 -12,13 -21,19 -5,5 -8,10 -13,15 -3,4 -4,5 -7,9l-8 9c-1,13 -17,42 -28,49 -7,-13 -3,-26 -12,-34 -9,-9 -24,-5 -36,-9l-7 2c-13,1 -23,4 -35,7 -14,3 -19,9 -31,11 -8,-17 1,-35 -23,-35 -11,-2 -23,-1 -36,-2l-21 3c-6,6 -34,21 -41,25 -4,-3 -8,-10 -12,-15 -9,-12 -7,-3 -7,-22l-6 12 -11 -3c-7,-1 -5,4 -6,-2 -21,-1 -28,20 -44,24l-2 -15c-2,-2 -3,-4 -7,-7l-8 -4 -58 5c-8,5 -13,6 -24,11l-11 4 -3 5 -9 5 -5 4c-7,9 -14,15 -23,23l-14 -10c-2,-2 -2,0 -2,-3 -1,-4 0,-4 0,-5 4,-8 4,-6 12,-7 4,-8 5,-12 15,-15l-5 -2 -5 -1c-1,1 -4,8 -4,9 -7,2 -9,3 -13,7 -10,10 2,4 -13,12 -3,-3 -4,-1 -5,-5l-17 1 -14 1c-4,-4 -5,2 -2,-6 3,-6 5,-5 7,-6l3 -6 0 -4 -1 -7c-6,7 -9,12 -13,19 -8,15 -2,13 -16,18 5,-20 14,-21 7,-42l-9 -10 -4 -1 -1 4 -26 1c-19,4 -42,7 -54,19 -2,11 2,3 -6,5l-13 7 -4 -45 -4 -3c-1,6 1,1 -5,4l1 7c7,3 4,11 4,21 1,12 3,13 0,25l-11 1 -14 1 0 -14 -3 -7 0 -11 -3 -2c-1,7 -2,4 2,9l-5 2 3 8 2 15 -9 -4c1,0 2,-1 -1,2 0,0 -1,1 -1,1 -1,1 -2,1 -3,2l-64 0c-3,2 -1,2 -7,3 -3,1 -6,0 -9,0l0 -7 -4 2 -1 5 -29 5c-15,0 -29,1 -28,-12 0,-8 17,-86 18,-119l-3 -4 -1 -3c0,1 1,10 1,10 -2,16 -1,6 -4,9l-5 -18 0 -9 -6 -17 -1 0c-6,-2 -1,2 -6,-5 0,-1 -3,-9 -3,-9 -3,-7 -3,-10 -4,-17 -10,-12 -7,-9 -11,-23l-3 -18c4,-7 -4,-3 7,-7l6 -15c-12,-23 -2,-35 -1,-47 0,-1 1,-1 1,-2l0 -8 -1 -15 1 -53 0 -13 17 -4 23 -6c9,-5 11,-4 18,-7l20 -5 14 -9 13 -2c2,-6 0,-3 6,-6l16 -7 10 -4 8 -9 11 -5c3,-2 1,-2 7,-4 2,-1 3,0 6,0 15,2 26,4 38,0 5,-29 -17,-19 -30,-27 -6,-8 -4,-10 -11,-18 -1,1 -1,2 -2,2l-5 16 -3 4 -4 9 -14 -1c-5,3 -7,4 -11,7l-9 5c-3,3 0,1 -5,5 0,0 -2,2 -2,1 0,0 -1,1 -2,2 -14,4 -23,15 -41,14 -1,1 -1,2 -2,2l-15 10 -16 5 -21 8 -19 4c0,-14 -3,-6 5,-12 4,-3 10,-8 15,-13l4 -2 0 -7c4,-18 -1,-21 3,-31l0 -14c-10,-11 -1,-12 -15,-25 -1,-1 -1,-2 -1,-2l-6 -13 -13 -11 -11 -1c-2,-3 -2,-2 -5,-5l-10 -12c-11,-2 -10,0 -19,-7l-19 -4 1 5z"/>
 </g>
</svg>
